<?xml version="1.0" encoding="UTF-8" standalone="no"?>
<svg
   width="210mm"
   height="297mm"
   viewBox="0 0 210 297"
   version="1.1"
   id="svg853"
   inkscape:version="1.1 (c4e8f9ed74, 2021-05-24)"
   sodipodi:docname="smartphone.svg"
   xmlns:inkscape="http://www.inkscape.org/namespaces/inkscape"
   xmlns:sodipodi="http://sodipodi.sourceforge.net/DTD/sodipodi-0.dtd"
   xmlns="http://www.w3.org/2000/svg"
   xmlns:svg="http://www.w3.org/2000/svg"
   xmlns:rdf="http://www.w3.org/1999/02/22-rdf-syntax-ns#"
   xmlns:cc="http://creativecommons.org/ns#"
   xmlns:dc="http://purl.org/dc/elements/1.1/">
  <defs
     id="defs847" />
  <sodipodi:namedview
     id="base"
     pagecolor="#ffffff"
     bordercolor="#666666"
     borderopacity="1.0"
     inkscape:pageopacity="0.0"
     inkscape:pageshadow="2"
     inkscape:zoom="1.979899"
     inkscape:cx="458.35672"
     inkscape:cy="427.29453"
     inkscape:document-units="mm"
     inkscape:current-layer="layer1"
     inkscape:document-rotation="0"
     showgrid="false"
     inkscape:window-width="2560"
     inkscape:window-height="1352"
     inkscape:window-x="0"
     inkscape:window-y="0"
     inkscape:window-maximized="1"
     inkscape:pagecheckerboard="0"
     inkscape:snap-grids="false"
     inkscape:snap-to-guides="false"
     inkscape:object-paths="false">
    <inkscape:grid
       type="xygrid"
       id="grid2010" />
  </sodipodi:namedview>
  <metadata
     id="metadata850">
    <rdf:RDF>
      <cc:Work
         rdf:about="">
        <dc:format>image/svg+xml</dc:format>
        <dc:type
           rdf:resource="http://purl.org/dc/dcmitype/StillImage" />
        <dc:title />
      </cc:Work>
    </rdf:RDF>
  </metadata>
  <g
     inkscape:label="phone"
     inkscape:groupmode="layer"
     id="layer1">
    <rect
       style="fill:#000000;fill-opacity:0.8;stroke:#000000;stroke-width:1.00002;stroke-linecap:butt;stroke-miterlimit:4;stroke-dasharray:none;stroke-opacity:1"
       id="rect1416"
       width="88.999985"
       height="183.51559"
       x="60.500008"
       y="56.742203"
       ry="10.483946" />
    <g
       id="g949"
       transform="matrix(0.89795915,0,0,1,9.1588282,2.28725)">
      <path
         id="rect1416-6"
         style="fill:#ffffff;fill-opacity:1;stroke:none;stroke-width:0;stroke-linecap:butt;stroke-miterlimit:4;stroke-dasharray:none;stroke-opacity:1"
         d="m 57.732216,212.38106 v 9.59993 0.24081 0.55914 c 0,5.3184 4.23337,9.59993 9.491946,9.59993 h 79.016108 c 5.25857,0 9.49195,-4.28153 9.49195,-9.59993 v -0.55914 -0.24081 -9.59993 h -9.49195 -79.016108 z" />
      <path
         id="rect1416-6-7"
         style="fill:#edeff1;fill-opacity:1;stroke:none;stroke-width:0.82584;stroke-linecap:butt;stroke-miterlimit:4;stroke-dasharray:none;stroke-opacity:1"
         d="m 67.224172,60.04463 c -5.258576,0 -9.491946,4.28153 -9.491946,9.59993 V 215.55608 H 155.73222 V 69.64456 c 0,-5.3184 -4.23338,-9.59993 -9.49195,-9.59993 z" />
    </g>
  </g>
  <g
     inkscape:groupmode="layer"
     id="layer3"
     inkscape:label="buttom_buttons"
     sodipodi:insensitive="true">
    <g
       id="g11489"
       transform="translate(0.3258139,0.38683501)">
      <rect
         style="fill:#bbbbbb;fill-opacity:1;stroke:none;stroke-width:0.1;stroke-opacity:1"
         id="rect7066"
         width="6"
         height="6"
         x="123.36472"
         y="223.16795"
         ry="0.60000002" />
      <g
         id="g10639"
         transform="matrix(0.8,0,0,0.8,21.905535,46.000382)">
        <circle
           style="fill:none;fill-opacity:1;stroke:#bbbbbb;stroke-width:0.5;stroke-miterlimit:4;stroke-dasharray:none;stroke-opacity:1"
           id="path7334"
           cx="103.18788"
           cy="225.20947"
           r="3.5" />
        <circle
           style="fill:#bbbbbb;fill-opacity:1;stroke:none;stroke-width:0.172661;stroke-opacity:1"
           id="path7334-5"
           cx="103.18788"
           cy="225.20947"
           r="2.7" />
      </g>
      <path
         sodipodi:type="star"
         style="fill:#bbbbbb;fill-opacity:1;stroke:#bbbbbb;stroke-width:5.84597;stroke-linecap:round;stroke-linejoin:round;stroke-miterlimit:4;stroke-dasharray:none;stroke-opacity:1"
         id="path11402"
         inkscape:flatsided="true"
         sodipodi:sides="3"
         sodipodi:cx="261.54575"
         sodipodi:cy="826.96149"
         sodipodi:r1="30.395384"
         sodipodi:r2="15.197691"
         sodipodi:arg1="0"
         sodipodi:arg2="1.0471976"
         inkscape:rounded="0"
         inkscape:randomized="0"
         d="m 291.94113,826.96149 -45.59308,26.32317 v -52.64635 z"
         transform="matrix(-0.10257833,0,0,0.10257833,110.0804,141.33963)"
         inkscape:transform-center-x="0.77947946"
         inkscape:transform-center-y="-6.0731743e-06" />
    </g>
  </g>
  <g
     inkscape:groupmode="layer"
     id="layer2"
     inkscape:label="speech_bubbles"
     sodipodi:insensitive="true">
    <rect
       style="display:none;fill:none;fill-opacity:1;stroke:#000000;stroke-width:0.269645;stroke-opacity:1"
       id="rect1303"
       width="81.307869"
       height="146.2314"
       x="64.346069"
       y="75.3843"
       ry="0" />
    <path
       id="rect5594"
       style="fill:#3498db;fill-opacity:1;stroke-width:0.264583"
       d="m -89.840091,59.925959 h 63.440209 c 1.21999,0 2.20215,0.98216 2.20215,2.202153 v 9.963956 c 0,1.219993 -0.98216,2.202153 -2.20215,2.202153 h -58.162042 l -5.278167,4.546973 v -4.546973 c -1.219993,0 -2.202154,-0.98216 -2.202154,-2.202153 v -9.963956 c 0,-1.219993 0.982161,-2.202153 2.202154,-2.202153 z"
       sodipodi:nodetypes="ssssccccsss" />
    <path
       id="rect5594-3"
       style="fill:#3498db;fill-opacity:1;stroke-width:0.264583"
       d="m -89.840095,84.468354 h 80.2967134 c 1.21999,0 2.20215,0.98216 2.20215,2.20215 v 9.96396 c 0,1.21999 -0.98216,2.20215 -2.20215,2.20215 H -84.561925 l -5.27817,4.546966 v -4.546966 c -1.21999,0 -2.20215,-0.98216 -2.20215,-2.20215 v -9.96396 c 0,-1.21999 0.98216,-2.20215 2.20215,-2.20215 z"
       sodipodi:nodetypes="ssssccccsss" />
    <path
       id="rect5594-5"
       style="fill:#ffffff;fill-opacity:0.8;stroke-width:0.264583"
       d="m -12.666882,109.01075 h -63.440213 c -1.21999,0 -2.20215,0.98216 -2.20215,2.20216 v 9.96395 c 0,1.22 0.98216,2.20216 2.20215,2.20216 h 58.162043 l 5.27817,4.54697 v -4.54697 c 1.21999,0 2.20215,-0.98216 2.20215,-2.20216 v -9.96395 c 0,-1.22 -0.98216,-2.20216 -2.20215,-2.20216 z"
       sodipodi:nodetypes="ssssccccsss" />
  </g>
</svg>
